<svg width="11" height="10" viewBox="0 0 11 10" fill="none" xmlns="http://www.w3.org/2000/svg">
<path d="M1.272 1.256C1.6 0.88 1.952 0.692 2.328 0.692C2.704 0.692 2.928 0.98 3 1.556V1.592C3 1.88 2.836 2.508 2.508 3.476L3.072 3.356C3.76 3.356 4.16 3.796 4.272 4.676V4.856C4.272 5.912 3.608 6.876 2.28 7.748C1.848 7.916 1.536 8 1.344 8C0.696 8 0.248 7.624 0 6.872C0.016 6.784 0.116 6.66 0.3 6.5C0.388 2.884 0.464 1.076 0.528 1.076C0.664 0.94 0.788 0.872 0.9 0.872C1.116 0.951999 1.224 1.08 1.224 1.256H1.272ZM1.152 4.556H1.2C1.856 3.316 2.204 2.356 2.244 1.676V1.4H2.124C1.956 1.4 1.732 1.852 1.452 2.756C1.252 3.612 1.152 4.212 1.152 4.556ZM1.608 5.3L1.428 5.372L1.128 5.348V5.372L1.08 5.528V6.776L1.044 7.22L1.308 7.292C1.988 7.292 2.66 6.78 3.324 5.756C3.508 5.3 3.6 4.924 3.6 4.628C3.6 4.26 3.424 4.076 3.072 4.076H3.024C2.64 4.076 2.168 4.484 1.608 5.3ZM7.09144 0.427999L10.6914 0.2C10.7954 0.2 10.8954 0.3 10.9914 0.5C10.9914 0.804 10.6394 0.956 9.93544 0.956L7.83544 1.076L7.78744 1.1C7.98744 2.404 8.08744 4.88 8.08744 8.528C8.04744 8.88 7.91944 9.056 7.70344 9.056C7.49544 9.056 7.37544 8.896 7.34344 8.576V5.792C7.34344 3.936 7.25944 2.388 7.09144 1.148C5.65944 1.284 4.94344 1.444 4.94344 1.628L4.83544 1.676C4.58744 1.604 4.46344 1.476 4.46344 1.292C4.46344 0.852 5.33944 0.564 7.09144 0.427999Z" fill="white"/>
</svg>
