<svg width="167" height="25" viewBox="0 0 167 25" fill="none" xmlns="http://www.w3.org/2000/svg">
<path d="M17.4966 15.1132L0.629773 21.869V16.156L11.3756 12.4381L11.1942 12.7101V12.0753L11.3756 12.3474L0.629773 8.62943V2.91648L17.4966 9.67227V15.1132ZM34.3464 24V0.785454H44.4121C46.1804 0.785454 47.6653 1.02349 48.8668 1.49957C50.0759 1.97565 50.9865 2.64821 51.5986 3.51724C52.2183 4.38628 52.5281 5.41023 52.5281 6.58909C52.5281 7.44301 52.3392 8.22136 51.9613 8.92415C51.5911 9.62693 51.0696 10.2164 50.3971 10.6924C49.7245 11.161 48.9386 11.4859 48.0394 11.6673V11.894C49.0369 11.9318 49.9437 12.1849 50.7598 12.6534C51.576 13.1144 52.2258 13.753 52.7095 14.5691C53.1931 15.3777 53.4349 16.3298 53.4349 17.4256C53.4349 18.6951 53.1024 19.8249 52.4374 20.8148C51.78 21.8047 50.8429 22.5831 49.6263 23.1499C48.4096 23.7166 46.9587 24 45.2736 24H34.3464ZM40.6488 18.9672H43.596C44.6539 18.9672 45.4474 18.7707 45.9763 18.3777C46.5053 17.9772 46.7698 17.3878 46.7698 16.6094C46.7698 16.0653 46.6451 15.6044 46.3958 15.2265C46.1464 14.8487 45.7912 14.5615 45.3302 14.3651C44.8768 14.1686 44.329 14.0703 43.6866 14.0703H40.6488V18.9672ZM40.6488 10.171H43.2332C43.7849 10.171 44.2723 10.0841 44.6955 9.91031C45.1186 9.73651 45.4474 9.48713 45.6816 9.16219C45.9235 8.82969 46.0444 8.4254 46.0444 7.94932C46.0444 7.23142 45.7874 6.68355 45.2736 6.30571C44.7597 5.92031 44.1098 5.72761 43.3239 5.72761H40.6488V10.171ZM55.7587 24V6.58909H61.8343V9.89898H62.0157C62.3331 8.67477 62.8356 7.77929 63.5233 7.21253C64.2185 6.64577 65.0309 6.36239 65.9604 6.36239C66.2324 6.36239 66.5007 6.38506 66.7652 6.4304C67.0372 6.46818 67.2979 6.52486 67.5473 6.60043V11.9393C67.2375 11.8335 66.8558 11.7542 66.4024 11.7013C65.949 11.6484 65.5598 11.6219 65.2349 11.6219C64.6228 11.6219 64.0712 11.7617 63.58 12.0413C63.0963 12.3134 62.7147 12.6988 62.4351 13.1975C62.1555 13.6887 62.0157 14.2668 62.0157 14.9318V24H55.7587ZM73.64 24.272C72.5291 24.272 71.5467 24.0907 70.6928 23.728C69.8464 23.3577 69.1814 22.7985 68.6978 22.0503C68.2142 21.3022 67.9724 20.3501 67.9724 19.1939C67.9724 18.2417 68.1348 17.4293 68.4598 16.7568C68.7847 16.0767 69.2381 15.5212 69.82 15.0905C70.4019 14.6598 71.0782 14.3311 71.849 14.1043C72.6274 13.8776 73.4662 13.7303 74.3654 13.6623C75.3403 13.5867 76.1224 13.496 76.7118 13.3902C77.3088 13.2769 77.7395 13.122 78.004 12.9255C78.2685 12.7214 78.4008 12.4532 78.4008 12.1207V12.0753C78.4008 11.6219 78.227 11.2743 77.8793 11.0325C77.5317 10.7907 77.0859 10.6698 76.5418 10.6698C75.9448 10.6698 75.4574 10.802 75.0795 11.0665C74.7093 11.3234 74.4863 11.7202 74.4108 12.2567H68.6525C68.728 11.1987 69.0643 10.2239 69.6613 9.33222C70.2659 8.43295 71.1462 7.71506 72.3024 7.17852C73.4586 6.63443 74.902 6.36239 76.6325 6.36239C77.8793 6.36239 78.9978 6.50974 79.9877 6.80446C80.9776 7.09162 81.8202 7.49591 82.5155 8.01733C83.2107 8.53119 83.7397 9.13574 84.1024 9.83097C84.4727 10.5186 84.6578 11.2668 84.6578 12.0753V24H78.8088V21.5516H78.6728C78.3252 22.2015 77.902 22.7267 77.4033 23.1272C76.9121 23.5277 76.3491 23.8186 75.7143 24C75.0871 24.1814 74.3957 24.272 73.64 24.272ZM75.6803 20.3274C76.1564 20.3274 76.6022 20.2291 77.0179 20.0327C77.441 19.8362 77.7849 19.5528 78.0494 19.1825C78.3139 18.8122 78.4461 18.3626 78.4461 17.8336V16.3827C78.2799 16.4507 78.1023 16.515 77.9134 16.5754C77.732 16.6359 77.5355 16.6926 77.3239 16.7455C77.1199 16.7984 76.9007 16.8475 76.6665 16.8928C76.4398 16.9382 76.2017 16.9797 75.9524 17.0175C75.4687 17.0931 75.072 17.2178 74.7622 17.3916C74.4599 17.5578 74.2332 17.7656 74.082 18.015C73.9385 18.2568 73.8667 18.5289 73.8667 18.8311C73.8667 19.3148 74.0367 19.6851 74.3768 19.942C74.7168 20.1989 75.1513 20.3274 75.6803 20.3274ZM93.9045 14.2064V24H87.6475V6.58909H93.5871V9.89898H93.7685C94.1463 8.79568 94.8113 7.93043 95.7635 7.30321C96.7232 6.67599 97.8416 6.36239 99.1187 6.36239C100.35 6.36239 101.42 6.64577 102.327 7.21253C103.241 7.77173 103.948 8.54253 104.446 9.52491C104.953 10.5073 105.202 11.6295 105.194 12.8915V24H98.9374V14.2064C98.9449 13.3449 98.7258 12.6686 98.2799 12.1774C97.8416 11.6862 97.2295 11.4406 96.4436 11.4406C95.9298 11.4406 95.4801 11.5539 95.0947 11.7806C94.7169 11.9998 94.4259 12.3172 94.2219 12.7328C94.0179 13.1409 93.9121 13.632 93.9045 14.2064ZM114.586 24.2267C113.346 24.2267 112.205 23.9018 111.162 23.2519C110.127 22.602 109.296 21.6158 108.669 20.2934C108.049 18.9709 107.739 17.3047 107.739 15.2945C107.739 13.1937 108.064 11.4859 108.714 10.171C109.371 8.85614 110.218 7.89264 111.253 7.28054C112.296 6.66844 113.392 6.36239 114.54 6.36239C115.402 6.36239 116.157 6.51352 116.807 6.81579C117.457 7.11051 118.001 7.50724 118.44 8.00599C118.878 8.49719 119.21 9.0375 119.437 9.62693H119.528V0.785454H125.785V24H119.573V21.1435H119.437C119.195 21.733 118.848 22.2619 118.394 22.7305C117.948 23.1914 117.404 23.5579 116.762 23.83C116.127 24.0945 115.402 24.2267 114.586 24.2267ZM116.898 19.4206C117.472 19.4206 117.964 19.2543 118.372 18.9218C118.787 18.5818 119.105 18.1057 119.324 17.4936C119.55 16.8739 119.664 16.1409 119.664 15.2945C119.664 14.4331 119.55 13.6963 119.324 13.0842C119.105 12.4645 118.787 11.9922 118.372 11.6673C117.964 11.3348 117.472 11.1685 116.898 11.1685C116.324 11.1685 115.833 11.3348 115.424 11.6673C115.024 11.9922 114.714 12.4645 114.495 13.0842C114.283 13.6963 114.178 14.4331 114.178 15.2945C114.178 16.156 114.283 16.8966 114.495 17.5162C114.714 18.1284 115.024 18.6007 115.424 18.9332C115.833 19.2581 116.324 19.4206 116.898 19.4206ZM137.245 24.3174C135.356 24.3174 133.738 23.9433 132.393 23.1952C131.048 22.4395 130.017 21.3891 129.299 20.044C128.581 18.6913 128.222 17.1233 128.222 15.3399C128.222 13.5565 128.581 11.9922 129.299 10.6471C130.017 9.29443 131.048 8.24403 132.393 7.49591C133.738 6.74023 135.356 6.36239 137.245 6.36239C139.134 6.36239 140.751 6.74023 142.096 7.49591C143.441 8.24403 144.473 9.29443 145.191 10.6471C145.909 11.9922 146.268 13.5565 146.268 15.3399C146.268 17.1233 145.909 18.6913 145.191 20.044C144.473 21.3891 143.441 22.4395 142.096 23.1952C140.751 23.9433 139.134 24.3174 137.245 24.3174ZM137.29 19.6926C137.819 19.6926 138.276 19.515 138.662 19.1599C139.047 18.8047 139.346 18.2984 139.557 17.6409C139.769 16.9835 139.875 16.2014 139.875 15.2945C139.875 14.3802 139.769 13.598 139.557 12.9482C139.346 12.2907 139.047 11.7844 138.662 11.4292C138.276 11.0741 137.819 10.8965 137.29 10.8965C136.731 10.8965 136.251 11.0741 135.851 11.4292C135.45 11.7844 135.144 12.2907 134.932 12.9482C134.721 13.598 134.615 14.3802 134.615 15.2945C134.615 16.2014 134.721 16.9835 134.932 17.6409C135.144 18.2984 135.45 18.8047 135.851 19.1599C136.251 19.515 136.731 19.6926 137.29 19.6926ZM155.064 14.2064V24H148.807V6.58909H154.746V9.89898H154.928C155.306 8.79568 155.971 7.93043 156.923 7.30321C157.882 6.67599 159.001 6.36239 160.278 6.36239C161.51 6.36239 162.579 6.64577 163.486 7.21253C164.4 7.77173 165.107 8.54253 165.605 9.52491C166.112 10.5073 166.361 11.6295 166.354 12.8915V24H160.097V14.2064C160.104 13.3449 159.885 12.6686 159.439 12.1774C159.001 11.6862 158.389 11.4406 157.603 11.4406C157.089 11.4406 156.639 11.5539 156.254 11.7806C155.876 11.9998 155.585 12.3172 155.381 12.7328C155.177 13.1409 155.071 13.632 155.064 14.2064Z" fill="white"/>
</svg>
